M48
;DRILL file {KiCad 4.0.2-stable} date 4/12/2016 5:17:02 AM
;FORMAT={2:4/ absolute / inch / keep zeros}
FMAT,2
INCH,TZ
T1C0.016
T2C0.039
T3C0.040
T4C0.087
T5C0.106
T6C0.126
%
G90
G05
M72
T1
X039587Y-036218
X039596Y-035686
X040276Y-034397
X054829Y-056508
T2
X026500Y-026500
X026500Y-030500
X028000Y-030000
X032000Y-030000
T3
X024000Y-032000
X024000Y-033000
X024000Y-034000
X024000Y-035000
X024000Y-036000
X024000Y-037000
X024000Y-038000
X025000Y-032000
X025000Y-038000
X026000Y-032000
X026000Y-038000
X027000Y-032000
X027000Y-038000
X028000Y-032000
X028000Y-038000
X028500Y-027000
X028500Y-028500
X029000Y-032000
X029000Y-038000
X029500Y-027000
X029500Y-028500
X030000Y-032000
X030000Y-038000
X030500Y-027000
X030500Y-028500
X031000Y-032000
X031000Y-038000
X031000Y-049000
X031000Y-051000
X031000Y-052500
X031000Y-053500
X031500Y-027000
X031500Y-028500
X032000Y-032000
X032000Y-038000
X032000Y-049000
X032000Y-051000
X032000Y-052500
X032000Y-053500
X033000Y-032000
X033000Y-038000
X033000Y-049000
X033000Y-051000
X034000Y-030000
X034000Y-032000
X034000Y-038000
X034000Y-049000
X034000Y-051000
X034000Y-052500
X034000Y-053500
X035000Y-032000
X035000Y-038000
X035000Y-049000
X035000Y-051000
X035000Y-052500
X035000Y-053500
X035500Y-030000
X036000Y-032000
X036000Y-038000
X036000Y-049000
X036000Y-051000
X037000Y-030000
X037000Y-032000
X037000Y-038000
X037000Y-040000
X037000Y-041000
X037000Y-042000
X037000Y-043000
X037000Y-044000
X037000Y-045000
X037000Y-046000
X037000Y-049000
X037000Y-051000
X039500Y-025000
X039500Y-027000
X040000Y-060000
X040500Y-025000
X040500Y-027000
X041000Y-032000
X041000Y-033000
X041000Y-034000
X041000Y-035000
X041000Y-036000
X041000Y-037000
X041000Y-038000
X041000Y-039000
X041000Y-040000
X041000Y-041000
X041000Y-042000
X041000Y-043000
X041000Y-044000
X041000Y-060000
X041500Y-025000
X041500Y-027000
X042000Y-032000
X042000Y-033000
X042000Y-034000
X042000Y-035000
X042000Y-036000
X042000Y-037000
X042000Y-038000
X042000Y-039000
X042000Y-040000
X042000Y-041000
X042000Y-042000
X042000Y-043000
X042000Y-044000
X042000Y-060000
X043000Y-060000
X044000Y-028000
X044000Y-029000
X044000Y-060000
X045000Y-028000
X045000Y-029000
X045000Y-032000
X045000Y-033000
X045000Y-034000
X045000Y-035000
X045000Y-036000
X045000Y-037000
X045000Y-039000
X045000Y-040000
X045000Y-041000
X045000Y-042000
X045000Y-043000
X045000Y-044000
X045000Y-060000
X046000Y-028000
X046000Y-029000
X047000Y-028000
X047000Y-029000
X048000Y-028000
X048000Y-029000
X049000Y-032000
X049000Y-033000
X049000Y-034000
X049000Y-035000
X049000Y-036000
X049000Y-037000
X049000Y-039000
X049000Y-040000
X049000Y-041000
X049000Y-042000
X049000Y-043000
X049000Y-044000
X049350Y-060000
X050000Y-028000
X050000Y-029000
X050350Y-060000
X051000Y-028000
X051000Y-029000
X051350Y-060000
X052000Y-028000
X052000Y-029000
X052000Y-037000
X052000Y-044000
X052350Y-060000
X053000Y-028000
X053000Y-029000
X053000Y-037000
X053000Y-044000
X053350Y-060000
X054000Y-028000
X054000Y-029000
X054000Y-037000
X054000Y-044000
X054350Y-060000
X055000Y-037000
X055000Y-044000
X055350Y-060000
X056000Y-028000
X056000Y-029000
X056000Y-037000
X056000Y-044000
X056350Y-060000
X057000Y-028000
X057000Y-029000
X057000Y-037000
X057000Y-044000
X057350Y-060000
X058000Y-028000
X058000Y-029000
X058000Y-037000
X058000Y-044000
X059000Y-028000
X059000Y-029000
X059000Y-037000
X059000Y-044000
X059000Y-054000
X059000Y-055000
X059000Y-056000
X059000Y-057000
X059000Y-058000
X059000Y-059000
X060000Y-028000
X060000Y-029000
X060000Y-037000
X060000Y-044000
X061000Y-037000
X061000Y-044000
X062000Y-028000
X062000Y-029000
X063000Y-028000
X063000Y-029000
X063000Y-051000
X064000Y-028000
X064000Y-029000
X064000Y-051000
X065000Y-028000
X065000Y-029000
X065000Y-031000
X065000Y-032000
X065000Y-043000
X065000Y-044000
X065000Y-051000
X066000Y-028000
X066000Y-029000
X066000Y-031000
X066000Y-032000
X066000Y-043000
X066000Y-044000
X066000Y-051000
X067000Y-031000
X067000Y-032000
X067000Y-043000
X067000Y-044000
X067000Y-051000
X068000Y-028000
X068000Y-029000
X068000Y-031000
X068000Y-032000
X068000Y-043000
X068000Y-044000
X068000Y-051000
X069000Y-028000
X069000Y-029000
X069000Y-031000
X069000Y-032000
X069000Y-043000
X069000Y-044000
X069000Y-051000
X070000Y-028000
X070000Y-029000
X070000Y-031000
X070000Y-032000
X070000Y-043000
X070000Y-044000
X070000Y-051000
X071000Y-028000
X071000Y-029000
X071000Y-031000
X071000Y-032000
X071000Y-043000
X071000Y-044000
X071000Y-051000
X072000Y-028000
X072000Y-029000
X072000Y-031000
X072000Y-032000
X072000Y-043000
X072000Y-044000
X072000Y-051000
T4
X061500Y-053500
X061500Y-059500
X073000Y-053000
X073000Y-060000
T5
X038350Y-053350
X038350Y-060100
X046350Y-053350
X046350Y-060100
X049350Y-048450
X052000Y-032000
X052000Y-039000
X057350Y-048450
X061000Y-032000
X061000Y-039000
X063000Y-046000
X072000Y-046000
T6
X023000Y-024000
X031000Y-042000
X038500Y-057000
X048000Y-024000
X070000Y-060000
X073000Y-024000
T0
M30
