G04 #@! TF.FileFunction,Soldermask,Top*
%FSLAX46Y46*%
G04 Gerber Fmt 4.6, Leading zero omitted, Abs format (unit mm)*
G04 Created by KiCad (PCBNEW 4.0.2-stable) date 4/12/2016 5:16:18 AM*
%MOMM*%
G01*
G04 APERTURE LIST*
%ADD10C,2.000000*%
%ADD11C,0.150000*%
%ADD12C,6.100000*%
%ADD13C,3.900000*%
%ADD14C,4.900000*%
%ADD15R,2.432000X2.432000*%
%ADD16O,2.432000X2.432000*%
%ADD17R,2.635200X2.635200*%
%ADD18R,2.432000X2.127200*%
%ADD19O,2.432000X2.127200*%
%ADD20R,2.127200X2.127200*%
%ADD21O,2.127200X2.127200*%
%ADD22R,2.127200X2.432000*%
%ADD23O,2.127200X2.432000*%
%ADD24C,2.398980*%
G04 APERTURE END LIST*
D10*
D11*
X93980000Y-139700000D02*
X93980000Y-157480000D01*
X73660000Y-139700000D02*
X93980000Y-139700000D01*
X93980000Y-157480000D02*
X190500000Y-157480000D01*
X190500000Y-55880000D02*
X190500000Y-157480000D01*
X53340000Y-55880000D02*
X190500000Y-55880000D01*
X53340000Y-101600000D02*
X53340000Y-55880000D01*
X73660000Y-139700000D02*
X73660000Y-101600000D01*
X53340000Y-101600000D02*
X73660000Y-101600000D01*
D12*
X97790000Y-144780000D03*
X121920000Y-60960000D03*
X78740000Y-106680000D03*
X58420000Y-60960000D03*
X185420000Y-60960000D03*
D13*
X185420000Y-134620000D03*
X185420000Y-152400000D03*
X156210000Y-151130000D03*
D14*
X154940000Y-81280000D03*
X132080000Y-81280000D03*
X132080000Y-99060000D03*
X154940000Y-99060000D03*
X182880000Y-116840000D03*
X160020000Y-116840000D03*
X125349000Y-123063000D03*
X145669000Y-123063000D03*
X117729000Y-135509000D03*
X97409000Y-135509000D03*
X117729000Y-152654000D03*
D15*
X86360000Y-133350000D03*
D16*
X88900000Y-133350000D03*
D17*
X90170000Y-76200000D03*
D18*
X93980000Y-101600000D03*
D19*
X93980000Y-104140000D03*
X93980000Y-106680000D03*
X93980000Y-109220000D03*
X93980000Y-111760000D03*
X93980000Y-114300000D03*
X93980000Y-116840000D03*
D20*
X182880000Y-73660000D03*
D21*
X182880000Y-71120000D03*
X180340000Y-73660000D03*
X180340000Y-71120000D03*
X177800000Y-73660000D03*
X177800000Y-71120000D03*
X175260000Y-73660000D03*
X175260000Y-71120000D03*
X172720000Y-73660000D03*
X172720000Y-71120000D03*
D20*
X152400000Y-73660000D03*
D21*
X152400000Y-71120000D03*
X149860000Y-73660000D03*
X149860000Y-71120000D03*
X147320000Y-73660000D03*
X147320000Y-71120000D03*
X144780000Y-73660000D03*
X144780000Y-71120000D03*
X142240000Y-73660000D03*
X142240000Y-71120000D03*
D20*
X137160000Y-73660000D03*
D21*
X137160000Y-71120000D03*
X134620000Y-73660000D03*
X134620000Y-71120000D03*
X132080000Y-73660000D03*
X132080000Y-71120000D03*
X129540000Y-73660000D03*
X129540000Y-71120000D03*
X127000000Y-73660000D03*
X127000000Y-71120000D03*
D20*
X167640000Y-73660000D03*
D21*
X167640000Y-71120000D03*
X165100000Y-73660000D03*
X165100000Y-71120000D03*
X162560000Y-73660000D03*
X162560000Y-71120000D03*
X160020000Y-73660000D03*
X160020000Y-71120000D03*
X157480000Y-73660000D03*
X157480000Y-71120000D03*
D20*
X121920000Y-73660000D03*
D21*
X121920000Y-71120000D03*
X119380000Y-73660000D03*
X119380000Y-71120000D03*
X116840000Y-73660000D03*
X116840000Y-71120000D03*
X114300000Y-73660000D03*
X114300000Y-71120000D03*
X111760000Y-73660000D03*
X111760000Y-71120000D03*
D22*
X101600000Y-152400000D03*
D23*
X104140000Y-152400000D03*
X106680000Y-152400000D03*
X109220000Y-152400000D03*
X111760000Y-152400000D03*
X114300000Y-152400000D03*
D22*
X125349000Y-152400000D03*
D23*
X127889000Y-152400000D03*
X130429000Y-152400000D03*
X132969000Y-152400000D03*
X135509000Y-152400000D03*
X138049000Y-152400000D03*
X140589000Y-152400000D03*
X143129000Y-152400000D03*
X145669000Y-152400000D03*
D18*
X114300000Y-93980000D03*
D19*
X114300000Y-91440000D03*
X114300000Y-88900000D03*
X114300000Y-86360000D03*
X114300000Y-83820000D03*
X114300000Y-81280000D03*
D18*
X124460000Y-93980000D03*
D19*
X124460000Y-91440000D03*
X124460000Y-88900000D03*
X124460000Y-86360000D03*
X124460000Y-83820000D03*
X124460000Y-81280000D03*
D18*
X114300000Y-111760000D03*
D19*
X114300000Y-109220000D03*
X114300000Y-106680000D03*
X114300000Y-104140000D03*
X114300000Y-101600000D03*
X114300000Y-99060000D03*
D18*
X124460000Y-111760000D03*
D19*
X124460000Y-109220000D03*
X124460000Y-106680000D03*
X124460000Y-104140000D03*
X124460000Y-101600000D03*
X124460000Y-99060000D03*
D22*
X105410000Y-68580000D03*
D23*
X102870000Y-68580000D03*
X100330000Y-68580000D03*
D22*
X132080000Y-93980000D03*
D23*
X134620000Y-93980000D03*
X137160000Y-93980000D03*
X139700000Y-93980000D03*
X142240000Y-93980000D03*
X144780000Y-93980000D03*
X147320000Y-93980000D03*
X149860000Y-93980000D03*
X152400000Y-93980000D03*
X154940000Y-93980000D03*
D22*
X132080000Y-111760000D03*
D23*
X134620000Y-111760000D03*
X137160000Y-111760000D03*
X139700000Y-111760000D03*
X142240000Y-111760000D03*
X144780000Y-111760000D03*
X147320000Y-111760000D03*
X149860000Y-111760000D03*
X152400000Y-111760000D03*
X154940000Y-111760000D03*
D22*
X160020000Y-129540000D03*
D23*
X162560000Y-129540000D03*
X165100000Y-129540000D03*
X167640000Y-129540000D03*
X170180000Y-129540000D03*
X172720000Y-129540000D03*
X175260000Y-129540000D03*
X177800000Y-129540000D03*
X180340000Y-129540000D03*
X182880000Y-129540000D03*
D20*
X165100000Y-109220000D03*
D21*
X165100000Y-111760000D03*
X167640000Y-109220000D03*
X167640000Y-111760000D03*
X170180000Y-109220000D03*
X170180000Y-111760000D03*
X172720000Y-109220000D03*
X172720000Y-111760000D03*
X175260000Y-109220000D03*
X175260000Y-111760000D03*
X177800000Y-109220000D03*
X177800000Y-111760000D03*
X180340000Y-109220000D03*
X180340000Y-111760000D03*
X182880000Y-109220000D03*
X182880000Y-111760000D03*
D18*
X149860000Y-137160000D03*
D19*
X149860000Y-139700000D03*
X149860000Y-142240000D03*
X149860000Y-144780000D03*
X149860000Y-147320000D03*
X149860000Y-149860000D03*
D18*
X60960000Y-83820000D03*
D19*
X60960000Y-86360000D03*
X60960000Y-88900000D03*
X60960000Y-91440000D03*
X60960000Y-93980000D03*
D22*
X93980000Y-96520000D03*
D23*
X91440000Y-96520000D03*
X88900000Y-96520000D03*
X86360000Y-96520000D03*
X83820000Y-96520000D03*
X81280000Y-96520000D03*
X78740000Y-96520000D03*
X76200000Y-96520000D03*
X73660000Y-96520000D03*
X71120000Y-96520000D03*
X68580000Y-96520000D03*
X66040000Y-96520000D03*
X63500000Y-96520000D03*
X60960000Y-96520000D03*
D22*
X93980000Y-81280000D03*
D23*
X91440000Y-81280000D03*
X88900000Y-81280000D03*
X86360000Y-81280000D03*
X83820000Y-81280000D03*
X81280000Y-81280000D03*
X78740000Y-81280000D03*
X76200000Y-81280000D03*
X73660000Y-81280000D03*
X71120000Y-81280000D03*
X68580000Y-81280000D03*
X66040000Y-81280000D03*
X63500000Y-81280000D03*
X60960000Y-81280000D03*
D20*
X165100000Y-78740000D03*
D21*
X165100000Y-81280000D03*
X167640000Y-78740000D03*
X167640000Y-81280000D03*
X170180000Y-78740000D03*
X170180000Y-81280000D03*
X172720000Y-78740000D03*
X172720000Y-81280000D03*
X175260000Y-78740000D03*
X175260000Y-81280000D03*
X177800000Y-78740000D03*
X177800000Y-81280000D03*
X180340000Y-78740000D03*
X180340000Y-81280000D03*
X182880000Y-78740000D03*
X182880000Y-81280000D03*
D22*
X93980000Y-124460000D03*
D23*
X91440000Y-124460000D03*
X88900000Y-124460000D03*
X86360000Y-124460000D03*
X83820000Y-124460000D03*
X81280000Y-124460000D03*
X78740000Y-124460000D03*
D22*
X93980000Y-129540000D03*
D23*
X91440000Y-129540000D03*
X88900000Y-129540000D03*
X86360000Y-129540000D03*
X83820000Y-129540000D03*
X81280000Y-129540000D03*
X78740000Y-129540000D03*
D20*
X104140000Y-111760000D03*
D21*
X106680000Y-111760000D03*
X104140000Y-109220000D03*
X106680000Y-109220000D03*
X104140000Y-106680000D03*
X106680000Y-106680000D03*
X104140000Y-104140000D03*
X106680000Y-104140000D03*
X104140000Y-101600000D03*
X106680000Y-101600000D03*
X104140000Y-99060000D03*
X106680000Y-99060000D03*
X104140000Y-96520000D03*
X106680000Y-96520000D03*
X104140000Y-93980000D03*
X106680000Y-93980000D03*
X104140000Y-91440000D03*
X106680000Y-91440000D03*
X104140000Y-88900000D03*
X106680000Y-88900000D03*
X104140000Y-86360000D03*
X106680000Y-86360000D03*
X104140000Y-83820000D03*
X106680000Y-83820000D03*
X104140000Y-81280000D03*
X106680000Y-81280000D03*
D22*
X80010000Y-68580000D03*
D23*
X77470000Y-68580000D03*
X74930000Y-68580000D03*
X72390000Y-68580000D03*
D22*
X80010000Y-72390000D03*
D23*
X77470000Y-72390000D03*
X74930000Y-72390000D03*
X72390000Y-72390000D03*
D24*
X67310000Y-67310000D03*
X67310000Y-77470000D03*
X81280000Y-76200000D03*
X71120000Y-76200000D03*
D15*
X78740000Y-133350000D03*
D16*
X81280000Y-133350000D03*
D15*
X78740000Y-135890000D03*
D16*
X81280000Y-135890000D03*
D15*
X86360000Y-135890000D03*
D16*
X88900000Y-135890000D03*
D17*
X93980000Y-76200000D03*
X86360000Y-76200000D03*
D22*
X105410000Y-63500000D03*
D23*
X102870000Y-63500000D03*
X100330000Y-63500000D03*
D14*
X97409000Y-152654000D03*
D13*
X156210000Y-135890000D03*
D12*
X177800000Y-152400000D03*
M02*
