G04 #@! TF.FileFunction,Copper,L2,Bot,Signal*
%FSLAX46Y46*%
G04 Gerber Fmt 4.6, Leading zero omitted, Abs format (unit mm)*
G04 Created by KiCad (PCBNEW 4.0.2-stable) date 4/12/2016 5:16:18 AM*
%MOMM*%
G01*
G04 APERTURE LIST*
%ADD10C,2.000000*%
%ADD11C,0.150000*%
%ADD12C,5.700000*%
%ADD13C,3.500000*%
%ADD14C,4.500000*%
%ADD15R,2.032000X2.032000*%
%ADD16O,2.032000X2.032000*%
%ADD17R,2.235200X2.235200*%
%ADD18R,2.032000X1.727200*%
%ADD19O,2.032000X1.727200*%
%ADD20R,1.727200X1.727200*%
%ADD21O,1.727200X1.727200*%
%ADD22R,1.727200X2.032000*%
%ADD23O,1.727200X2.032000*%
%ADD24C,1.998980*%
%ADD25C,0.600000*%
%ADD26C,0.250000*%
G04 APERTURE END LIST*
D10*
D11*
X93980000Y-139700000D02*
X93980000Y-157480000D01*
X73660000Y-139700000D02*
X93980000Y-139700000D01*
X93980000Y-157480000D02*
X190500000Y-157480000D01*
X190500000Y-55880000D02*
X190500000Y-157480000D01*
X53340000Y-55880000D02*
X190500000Y-55880000D01*
X53340000Y-101600000D02*
X53340000Y-55880000D01*
X73660000Y-139700000D02*
X73660000Y-101600000D01*
X53340000Y-101600000D02*
X73660000Y-101600000D01*
D12*
X97790000Y-144780000D03*
X121920000Y-60960000D03*
X78740000Y-106680000D03*
X58420000Y-60960000D03*
X185420000Y-60960000D03*
D13*
X185420000Y-134620000D03*
X185420000Y-152400000D03*
X156210000Y-151130000D03*
D14*
X154940000Y-81280000D03*
X132080000Y-81280000D03*
X132080000Y-99060000D03*
X154940000Y-99060000D03*
X182880000Y-116840000D03*
X160020000Y-116840000D03*
X125349000Y-123063000D03*
X145669000Y-123063000D03*
X117729000Y-135509000D03*
X97409000Y-135509000D03*
X117729000Y-152654000D03*
D15*
X86360000Y-133350000D03*
D16*
X88900000Y-133350000D03*
D17*
X90170000Y-76200000D03*
D18*
X93980000Y-101600000D03*
D19*
X93980000Y-104140000D03*
X93980000Y-106680000D03*
X93980000Y-109220000D03*
X93980000Y-111760000D03*
X93980000Y-114300000D03*
X93980000Y-116840000D03*
D20*
X182880000Y-73660000D03*
D21*
X182880000Y-71120000D03*
X180340000Y-73660000D03*
X180340000Y-71120000D03*
X177800000Y-73660000D03*
X177800000Y-71120000D03*
X175260000Y-73660000D03*
X175260000Y-71120000D03*
X172720000Y-73660000D03*
X172720000Y-71120000D03*
D20*
X152400000Y-73660000D03*
D21*
X152400000Y-71120000D03*
X149860000Y-73660000D03*
X149860000Y-71120000D03*
X147320000Y-73660000D03*
X147320000Y-71120000D03*
X144780000Y-73660000D03*
X144780000Y-71120000D03*
X142240000Y-73660000D03*
X142240000Y-71120000D03*
D20*
X137160000Y-73660000D03*
D21*
X137160000Y-71120000D03*
X134620000Y-73660000D03*
X134620000Y-71120000D03*
X132080000Y-73660000D03*
X132080000Y-71120000D03*
X129540000Y-73660000D03*
X129540000Y-71120000D03*
X127000000Y-73660000D03*
X127000000Y-71120000D03*
D20*
X167640000Y-73660000D03*
D21*
X167640000Y-71120000D03*
X165100000Y-73660000D03*
X165100000Y-71120000D03*
X162560000Y-73660000D03*
X162560000Y-71120000D03*
X160020000Y-73660000D03*
X160020000Y-71120000D03*
X157480000Y-73660000D03*
X157480000Y-71120000D03*
D20*
X121920000Y-73660000D03*
D21*
X121920000Y-71120000D03*
X119380000Y-73660000D03*
X119380000Y-71120000D03*
X116840000Y-73660000D03*
X116840000Y-71120000D03*
X114300000Y-73660000D03*
X114300000Y-71120000D03*
X111760000Y-73660000D03*
X111760000Y-71120000D03*
D22*
X101600000Y-152400000D03*
D23*
X104140000Y-152400000D03*
X106680000Y-152400000D03*
X109220000Y-152400000D03*
X111760000Y-152400000D03*
X114300000Y-152400000D03*
D22*
X125349000Y-152400000D03*
D23*
X127889000Y-152400000D03*
X130429000Y-152400000D03*
X132969000Y-152400000D03*
X135509000Y-152400000D03*
X138049000Y-152400000D03*
X140589000Y-152400000D03*
X143129000Y-152400000D03*
X145669000Y-152400000D03*
D18*
X114300000Y-93980000D03*
D19*
X114300000Y-91440000D03*
X114300000Y-88900000D03*
X114300000Y-86360000D03*
X114300000Y-83820000D03*
X114300000Y-81280000D03*
D18*
X124460000Y-93980000D03*
D19*
X124460000Y-91440000D03*
X124460000Y-88900000D03*
X124460000Y-86360000D03*
X124460000Y-83820000D03*
X124460000Y-81280000D03*
D18*
X114300000Y-111760000D03*
D19*
X114300000Y-109220000D03*
X114300000Y-106680000D03*
X114300000Y-104140000D03*
X114300000Y-101600000D03*
X114300000Y-99060000D03*
D18*
X124460000Y-111760000D03*
D19*
X124460000Y-109220000D03*
X124460000Y-106680000D03*
X124460000Y-104140000D03*
X124460000Y-101600000D03*
X124460000Y-99060000D03*
D22*
X105410000Y-68580000D03*
D23*
X102870000Y-68580000D03*
X100330000Y-68580000D03*
D22*
X132080000Y-93980000D03*
D23*
X134620000Y-93980000D03*
X137160000Y-93980000D03*
X139700000Y-93980000D03*
X142240000Y-93980000D03*
X144780000Y-93980000D03*
X147320000Y-93980000D03*
X149860000Y-93980000D03*
X152400000Y-93980000D03*
X154940000Y-93980000D03*
D22*
X132080000Y-111760000D03*
D23*
X134620000Y-111760000D03*
X137160000Y-111760000D03*
X139700000Y-111760000D03*
X142240000Y-111760000D03*
X144780000Y-111760000D03*
X147320000Y-111760000D03*
X149860000Y-111760000D03*
X152400000Y-111760000D03*
X154940000Y-111760000D03*
D22*
X160020000Y-129540000D03*
D23*
X162560000Y-129540000D03*
X165100000Y-129540000D03*
X167640000Y-129540000D03*
X170180000Y-129540000D03*
X172720000Y-129540000D03*
X175260000Y-129540000D03*
X177800000Y-129540000D03*
X180340000Y-129540000D03*
X182880000Y-129540000D03*
D20*
X165100000Y-109220000D03*
D21*
X165100000Y-111760000D03*
X167640000Y-109220000D03*
X167640000Y-111760000D03*
X170180000Y-109220000D03*
X170180000Y-111760000D03*
X172720000Y-109220000D03*
X172720000Y-111760000D03*
X175260000Y-109220000D03*
X175260000Y-111760000D03*
X177800000Y-109220000D03*
X177800000Y-111760000D03*
X180340000Y-109220000D03*
X180340000Y-111760000D03*
X182880000Y-109220000D03*
X182880000Y-111760000D03*
D18*
X149860000Y-137160000D03*
D19*
X149860000Y-139700000D03*
X149860000Y-142240000D03*
X149860000Y-144780000D03*
X149860000Y-147320000D03*
X149860000Y-149860000D03*
D18*
X60960000Y-83820000D03*
D19*
X60960000Y-86360000D03*
X60960000Y-88900000D03*
X60960000Y-91440000D03*
X60960000Y-93980000D03*
D22*
X93980000Y-96520000D03*
D23*
X91440000Y-96520000D03*
X88900000Y-96520000D03*
X86360000Y-96520000D03*
X83820000Y-96520000D03*
X81280000Y-96520000D03*
X78740000Y-96520000D03*
X76200000Y-96520000D03*
X73660000Y-96520000D03*
X71120000Y-96520000D03*
X68580000Y-96520000D03*
X66040000Y-96520000D03*
X63500000Y-96520000D03*
X60960000Y-96520000D03*
D22*
X93980000Y-81280000D03*
D23*
X91440000Y-81280000D03*
X88900000Y-81280000D03*
X86360000Y-81280000D03*
X83820000Y-81280000D03*
X81280000Y-81280000D03*
X78740000Y-81280000D03*
X76200000Y-81280000D03*
X73660000Y-81280000D03*
X71120000Y-81280000D03*
X68580000Y-81280000D03*
X66040000Y-81280000D03*
X63500000Y-81280000D03*
X60960000Y-81280000D03*
D20*
X165100000Y-78740000D03*
D21*
X165100000Y-81280000D03*
X167640000Y-78740000D03*
X167640000Y-81280000D03*
X170180000Y-78740000D03*
X170180000Y-81280000D03*
X172720000Y-78740000D03*
X172720000Y-81280000D03*
X175260000Y-78740000D03*
X175260000Y-81280000D03*
X177800000Y-78740000D03*
X177800000Y-81280000D03*
X180340000Y-78740000D03*
X180340000Y-81280000D03*
X182880000Y-78740000D03*
X182880000Y-81280000D03*
D22*
X93980000Y-124460000D03*
D23*
X91440000Y-124460000D03*
X88900000Y-124460000D03*
X86360000Y-124460000D03*
X83820000Y-124460000D03*
X81280000Y-124460000D03*
X78740000Y-124460000D03*
D22*
X93980000Y-129540000D03*
D23*
X91440000Y-129540000D03*
X88900000Y-129540000D03*
X86360000Y-129540000D03*
X83820000Y-129540000D03*
X81280000Y-129540000D03*
X78740000Y-129540000D03*
D20*
X104140000Y-111760000D03*
D21*
X106680000Y-111760000D03*
X104140000Y-109220000D03*
X106680000Y-109220000D03*
X104140000Y-106680000D03*
X106680000Y-106680000D03*
X104140000Y-104140000D03*
X106680000Y-104140000D03*
X104140000Y-101600000D03*
X106680000Y-101600000D03*
X104140000Y-99060000D03*
X106680000Y-99060000D03*
X104140000Y-96520000D03*
X106680000Y-96520000D03*
X104140000Y-93980000D03*
X106680000Y-93980000D03*
X104140000Y-91440000D03*
X106680000Y-91440000D03*
X104140000Y-88900000D03*
X106680000Y-88900000D03*
X104140000Y-86360000D03*
X106680000Y-86360000D03*
X104140000Y-83820000D03*
X106680000Y-83820000D03*
X104140000Y-81280000D03*
X106680000Y-81280000D03*
D22*
X80010000Y-68580000D03*
D23*
X77470000Y-68580000D03*
X74930000Y-68580000D03*
X72390000Y-68580000D03*
D22*
X80010000Y-72390000D03*
D23*
X77470000Y-72390000D03*
X74930000Y-72390000D03*
X72390000Y-72390000D03*
D24*
X67310000Y-67310000D03*
X67310000Y-77470000D03*
X81280000Y-76200000D03*
X71120000Y-76200000D03*
D15*
X78740000Y-133350000D03*
D16*
X81280000Y-133350000D03*
D15*
X78740000Y-135890000D03*
D16*
X81280000Y-135890000D03*
D15*
X86360000Y-135890000D03*
D16*
X88900000Y-135890000D03*
D17*
X93980000Y-76200000D03*
X86360000Y-76200000D03*
D22*
X105410000Y-63500000D03*
D23*
X102870000Y-63500000D03*
X100330000Y-63500000D03*
D14*
X97409000Y-152654000D03*
D13*
X156210000Y-135890000D03*
D12*
X177800000Y-152400000D03*
D25*
X100574500Y-90641800D03*
X100550700Y-91992700D03*
X102300000Y-87369300D03*
X139266200Y-143531400D03*
D26*
X170180000Y-129540000D02*
X168941100Y-129540000D01*
X160020000Y-129540000D02*
X161258900Y-129540000D01*
X172720000Y-71120000D02*
X171481100Y-71120000D01*
X165100000Y-78740000D02*
X165100000Y-77501100D01*
X165100000Y-78740000D02*
X165100000Y-79978900D01*
X164635400Y-79978900D02*
X165100000Y-79978900D01*
X163815800Y-80798500D02*
X164635400Y-79978900D01*
X163815800Y-106696900D02*
X163815800Y-80798500D01*
X165100000Y-107981100D02*
X163815800Y-106696900D01*
X132080000Y-93980000D02*
X130841100Y-93980000D01*
X154959000Y-69837900D02*
X156241100Y-71120000D01*
X139681000Y-69837900D02*
X154959000Y-69837900D01*
X138398900Y-71120000D02*
X139681000Y-69837900D01*
X137160000Y-71120000D02*
X138398900Y-71120000D01*
X157480000Y-71120000D02*
X156241100Y-71120000D01*
X157480000Y-71120000D02*
X158718900Y-71120000D01*
X158718900Y-71633400D02*
X158718900Y-71120000D01*
X159475500Y-72390000D02*
X158718900Y-71633400D01*
X166078800Y-72390000D02*
X159475500Y-72390000D01*
X166338900Y-72650100D02*
X166078800Y-72390000D01*
X166630100Y-72358900D02*
X166338900Y-72650100D01*
X170242200Y-72358900D02*
X166630100Y-72358900D01*
X171481100Y-71120000D02*
X170242200Y-72358900D01*
X166338900Y-76262200D02*
X165100000Y-77501100D01*
X166338900Y-72650100D02*
X166338900Y-76262200D01*
X124460000Y-99060000D02*
X124460000Y-97821100D01*
X125125800Y-100298900D02*
X124460000Y-100298900D01*
X132080000Y-107253100D02*
X125125800Y-100298900D01*
X132080000Y-111760000D02*
X132080000Y-107253100D01*
X124460000Y-99060000D02*
X124460000Y-100298900D01*
X100330000Y-63500000D02*
X100330000Y-67188600D01*
X165100000Y-108600500D02*
X165100000Y-107981100D01*
X165100000Y-108600500D02*
X165100000Y-109220000D01*
X165100000Y-109220000D02*
X165100000Y-110458900D01*
X166370000Y-125048300D02*
X165719400Y-125698900D01*
X166370000Y-111264300D02*
X166370000Y-125048300D01*
X165564600Y-110458900D02*
X166370000Y-111264300D01*
X165100000Y-110458900D02*
X165564600Y-110458900D01*
X164480500Y-125698900D02*
X165719400Y-125698900D01*
X161258900Y-128920500D02*
X164480500Y-125698900D01*
X161258900Y-129540000D02*
X161258900Y-128920500D01*
X168941100Y-128920600D02*
X168941100Y-129540000D01*
X165719400Y-125698900D02*
X168941100Y-128920600D01*
X83820000Y-101040100D02*
X83820000Y-124460000D01*
X87630000Y-97230100D02*
X83820000Y-101040100D01*
X87630000Y-78962900D02*
X87630000Y-97230100D01*
X86360000Y-77692900D02*
X87630000Y-78962900D01*
X86360000Y-76200000D02*
X86360000Y-77692900D01*
X137160000Y-71120000D02*
X135921100Y-71120000D01*
X77470000Y-68580000D02*
X78708900Y-68580000D01*
X81028900Y-67188600D02*
X86360000Y-72519700D01*
X78938800Y-67188600D02*
X81028900Y-67188600D01*
X78708900Y-67418500D02*
X78938800Y-67188600D01*
X78708900Y-68580000D02*
X78708900Y-67418500D01*
X86360000Y-72519700D02*
X86360000Y-76200000D01*
X100330000Y-67188600D02*
X100330000Y-68580000D01*
X90299700Y-68580000D02*
X86360000Y-72519700D01*
X100330000Y-68580000D02*
X90299700Y-68580000D01*
X128950900Y-72390000D02*
X130810000Y-72390000D01*
X128270000Y-71709100D02*
X128950900Y-72390000D01*
X128270000Y-70625700D02*
X128270000Y-71709100D01*
X124832900Y-67188600D02*
X128270000Y-70625700D01*
X100330000Y-67188600D02*
X124832900Y-67188600D01*
X135921100Y-71633400D02*
X135921100Y-71120000D01*
X135164500Y-72390000D02*
X135921100Y-71633400D01*
X130810000Y-72390000D02*
X135164500Y-72390000D01*
X124959300Y-80041100D02*
X124460000Y-80041100D01*
X130810000Y-74190400D02*
X124959300Y-80041100D01*
X130810000Y-72390000D02*
X130810000Y-74190400D01*
X124460000Y-81280000D02*
X124460000Y-80041100D01*
X124460000Y-81280000D02*
X124460000Y-82518900D01*
X127840500Y-93980000D02*
X130841100Y-93980000D01*
X127840500Y-94440600D02*
X127840500Y-93980000D01*
X124460000Y-97821100D02*
X127840500Y-94440600D01*
X125125800Y-82518900D02*
X124460000Y-82518900D01*
X127840500Y-85233600D02*
X125125800Y-82518900D01*
X127840500Y-93980000D02*
X127840500Y-85233600D01*
X181610000Y-83788900D02*
X182880000Y-82518900D01*
X181610000Y-109715700D02*
X181610000Y-83788900D01*
X182415400Y-110521100D02*
X181610000Y-109715700D01*
X182880000Y-110521100D02*
X182415400Y-110521100D01*
X182880000Y-111760000D02*
X182880000Y-110521100D01*
X182880000Y-81280000D02*
X182880000Y-82518900D01*
X95371400Y-96672500D02*
X95218900Y-96520000D01*
X95371400Y-102671200D02*
X95371400Y-96672500D01*
X95141500Y-102901100D02*
X95371400Y-102671200D01*
X93980000Y-102901100D02*
X95141500Y-102901100D01*
X93980000Y-104140000D02*
X93980000Y-102901100D01*
X93980000Y-96520000D02*
X95218900Y-96520000D01*
X114300000Y-93980000D02*
X114300000Y-95218900D01*
X106680000Y-101600000D02*
X107918900Y-101600000D01*
X114300000Y-95218900D02*
X107918900Y-101600000D01*
X113680600Y-110521100D02*
X114300000Y-110521100D01*
X107918900Y-104759400D02*
X113680600Y-110521100D01*
X107918900Y-101600000D02*
X107918900Y-104759400D01*
X134620000Y-93980000D02*
X135858900Y-93980000D01*
X142240000Y-93980000D02*
X141001100Y-93980000D01*
X73482900Y-67132900D02*
X74930000Y-68580000D01*
X67487100Y-67132900D02*
X73482900Y-67132900D01*
X67310000Y-67310000D02*
X67487100Y-67132900D01*
X114300000Y-111760000D02*
X114300000Y-111265300D01*
X114300000Y-111265300D02*
X114300000Y-110521100D01*
X122574000Y-111265300D02*
X123068700Y-111760000D01*
X114300000Y-111265300D02*
X122574000Y-111265300D01*
X124460000Y-111760000D02*
X123068700Y-111760000D01*
X83820000Y-129540000D02*
X84439500Y-129540000D01*
X84439500Y-129540000D02*
X85058900Y-129540000D01*
X104140000Y-146568600D02*
X104140000Y-152400000D01*
X95705800Y-138134400D02*
X104140000Y-146568600D01*
X86003700Y-138134400D02*
X95705800Y-138134400D01*
X84439500Y-136570200D02*
X86003700Y-138134400D01*
X84439500Y-129540000D02*
X84439500Y-136570200D01*
X146081100Y-86756800D02*
X140262400Y-92575500D01*
X146081100Y-73133100D02*
X146081100Y-86756800D01*
X146855300Y-72358900D02*
X146081100Y-73133100D01*
X147320000Y-72358900D02*
X146855300Y-72358900D01*
X136643900Y-92575500D02*
X140262400Y-92575500D01*
X135858900Y-93360500D02*
X136643900Y-92575500D01*
X135858900Y-93980000D02*
X135858900Y-93360500D01*
X141001100Y-93314200D02*
X141001100Y-93980000D01*
X140262400Y-92575500D02*
X141001100Y-93314200D01*
X147320000Y-71120000D02*
X147320000Y-72358900D01*
X140589000Y-147050500D02*
X140589000Y-152400000D01*
X149240600Y-138398900D02*
X140589000Y-147050500D01*
X149860000Y-138398900D02*
X149240600Y-138398900D01*
X149860000Y-137160000D02*
X149860000Y-138398900D01*
X93980000Y-104140000D02*
X93980000Y-105378900D01*
X124514000Y-69872900D02*
X125761100Y-71120000D01*
X121401400Y-69872900D02*
X124514000Y-69872900D01*
X120618900Y-70655400D02*
X121401400Y-69872900D01*
X120618900Y-71120000D02*
X120618900Y-70655400D01*
X119380000Y-71120000D02*
X120618900Y-71120000D01*
X127000000Y-71120000D02*
X125761100Y-71120000D01*
X93314200Y-105378900D02*
X93980000Y-105378900D01*
X85058900Y-113634200D02*
X93314200Y-105378900D01*
X85058900Y-129540000D02*
X85058900Y-113634200D01*
X137160000Y-111760000D02*
X137160000Y-93980000D01*
X123794200Y-85058900D02*
X124460000Y-85058900D01*
X123052700Y-85800400D02*
X123794200Y-85058900D01*
X123052700Y-100192700D02*
X123052700Y-85800400D01*
X124460000Y-101600000D02*
X123052700Y-100192700D01*
X124460000Y-83820000D02*
X124460000Y-85058900D01*
X149860000Y-139700000D02*
X149860000Y-140938900D01*
X149194200Y-140938900D02*
X149860000Y-140938900D01*
X143129000Y-147004100D02*
X149194200Y-140938900D01*
X143129000Y-152400000D02*
X143129000Y-147004100D01*
X101631100Y-70041800D02*
X95472900Y-76200000D01*
X101631100Y-68580000D02*
X101631100Y-70041800D01*
X102870000Y-68580000D02*
X101631100Y-68580000D01*
X93980000Y-76200000D02*
X95472900Y-76200000D01*
X95472900Y-88194900D02*
X95472900Y-76200000D01*
X92741000Y-90926800D02*
X95472900Y-88194900D01*
X92741000Y-99122100D02*
X92741000Y-90926800D01*
X93980000Y-100361100D02*
X92741000Y-99122100D01*
X93980000Y-101600000D02*
X93980000Y-100361100D01*
X113030000Y-78771100D02*
X114300000Y-80041100D01*
X113030000Y-73164300D02*
X113030000Y-78771100D01*
X113835400Y-72358900D02*
X113030000Y-73164300D01*
X114300000Y-72358900D02*
X113835400Y-72358900D01*
X114300000Y-71120000D02*
X114300000Y-72358900D01*
X114300000Y-81280000D02*
X114300000Y-80041100D01*
X104140000Y-83820000D02*
X104140000Y-85058900D01*
X96122900Y-104537100D02*
X93980000Y-106680000D01*
X96122900Y-92591400D02*
X96122900Y-104537100D01*
X103655400Y-85058900D02*
X96122900Y-92591400D01*
X104140000Y-85058900D02*
X103655400Y-85058900D01*
X93980000Y-109220000D02*
X93980000Y-107981100D01*
X94645800Y-107981100D02*
X93980000Y-107981100D01*
X98212300Y-104414600D02*
X94645800Y-107981100D01*
X98212300Y-93004000D02*
X98212300Y-104414600D01*
X100574500Y-90641800D02*
X98212300Y-93004000D01*
X100550700Y-104569900D02*
X100550700Y-91992700D01*
X94599500Y-110521100D02*
X100550700Y-104569900D01*
X93980000Y-110521100D02*
X94599500Y-110521100D01*
X93980000Y-111760000D02*
X93980000Y-110521100D01*
X94645800Y-113061100D02*
X93980000Y-113061100D01*
X101257600Y-106449300D02*
X94645800Y-113061100D01*
X101257600Y-88411700D02*
X101257600Y-106449300D01*
X102300000Y-87369300D02*
X101257600Y-88411700D01*
X93980000Y-114300000D02*
X93980000Y-113061100D01*
X115713600Y-76312500D02*
X114300000Y-74898900D01*
X115713600Y-81786900D02*
X115713600Y-76312500D01*
X114919400Y-82581100D02*
X115713600Y-81786900D01*
X114300000Y-82581100D02*
X114919400Y-82581100D01*
X114300000Y-83820000D02*
X114300000Y-82581100D01*
X114300000Y-73660000D02*
X114300000Y-74898900D01*
X109220000Y-152400000D02*
X107981100Y-152400000D01*
X106680000Y-109220000D02*
X106680000Y-110458900D01*
X106215400Y-110458900D02*
X105671100Y-111003200D01*
X106680000Y-110458900D02*
X106215400Y-110458900D01*
X107981100Y-151161100D02*
X107981100Y-152400000D01*
X105438200Y-148618200D02*
X107981100Y-151161100D01*
X105438200Y-111236100D02*
X105438200Y-148618200D01*
X105671100Y-111003200D02*
X105438200Y-111236100D01*
X105188800Y-110521000D02*
X105671100Y-111003200D01*
X103627800Y-110521000D02*
X105188800Y-110521000D01*
X102894600Y-109787800D02*
X103627800Y-110521000D01*
X102894600Y-108705300D02*
X102894600Y-109787800D01*
X102383200Y-108193900D02*
X102894600Y-108705300D01*
X102383200Y-102715800D02*
X102383200Y-108193900D01*
X102789600Y-102309400D02*
X102383200Y-102715800D01*
X102789600Y-101174700D02*
X102789600Y-102309400D01*
X103634300Y-100330000D02*
X102789600Y-101174700D01*
X104650600Y-100330000D02*
X103634300Y-100330000D01*
X105441000Y-99539600D02*
X104650600Y-100330000D01*
X105441000Y-93400400D02*
X105441000Y-99539600D01*
X106131400Y-92710000D02*
X105441000Y-93400400D01*
X107220100Y-92710000D02*
X106131400Y-92710000D01*
X112405300Y-87524800D02*
X107220100Y-92710000D01*
X112405300Y-85714700D02*
X112405300Y-87524800D01*
X114300000Y-83820000D02*
X112405300Y-85714700D01*
X119380000Y-80660500D02*
X119380000Y-73660000D01*
X114919400Y-85121100D02*
X119380000Y-80660500D01*
X114300000Y-85121100D02*
X114919400Y-85121100D01*
X114300000Y-86360000D02*
X114300000Y-85121100D01*
X78708900Y-73628900D02*
X78708900Y-72390000D01*
X81280000Y-76200000D02*
X78708900Y-73628900D01*
X77470000Y-72390000D02*
X78708900Y-72390000D01*
X124522100Y-72421000D02*
X125761100Y-73660000D01*
X116295500Y-72421000D02*
X124522100Y-72421000D01*
X115570000Y-71695500D02*
X116295500Y-72421000D01*
X115570000Y-70589400D02*
X115570000Y-71695500D01*
X114801400Y-69820800D02*
X115570000Y-70589400D01*
X111258600Y-69820800D02*
X114801400Y-69820800D01*
X108823400Y-72256000D02*
X111258600Y-69820800D01*
X108823400Y-88588900D02*
X108823400Y-72256000D01*
X107211200Y-90201100D02*
X108823400Y-88588900D01*
X106153100Y-90201100D02*
X107211200Y-90201100D01*
X105378900Y-90975300D02*
X106153100Y-90201100D01*
X105378900Y-91440000D02*
X105378900Y-90975300D01*
X104140000Y-91440000D02*
X105378900Y-91440000D01*
X127000000Y-73660000D02*
X125761100Y-73660000D01*
X135509000Y-147570200D02*
X135509000Y-152400000D01*
X107919000Y-119980200D02*
X135509000Y-147570200D01*
X107919000Y-108620300D02*
X107919000Y-119980200D01*
X107248700Y-107950000D02*
X107919000Y-108620300D01*
X106131400Y-107950000D02*
X107248700Y-107950000D01*
X105441000Y-107259600D02*
X106131400Y-107950000D01*
X105441000Y-106207000D02*
X105441000Y-107259600D01*
X104644000Y-105410000D02*
X105441000Y-106207000D01*
X103599100Y-105410000D02*
X104644000Y-105410000D01*
X102883600Y-104694500D02*
X103599100Y-105410000D01*
X102883600Y-103630700D02*
X102883600Y-104694500D01*
X103675400Y-102838900D02*
X102883600Y-103630700D01*
X104140000Y-102838900D02*
X103675400Y-102838900D01*
X104140000Y-101600000D02*
X104140000Y-102838900D01*
X104140000Y-104140000D02*
X105378900Y-104140000D01*
X105378900Y-104604700D02*
X105378900Y-104140000D01*
X106153100Y-105378900D02*
X105378900Y-104604700D01*
X107157200Y-105378900D02*
X106153100Y-105378900D01*
X112121700Y-110343400D02*
X107157200Y-105378900D01*
X112121700Y-121262500D02*
X112121700Y-110343400D01*
X138049000Y-147189800D02*
X112121700Y-121262500D01*
X138049000Y-152400000D02*
X138049000Y-147189800D01*
X128301100Y-74264100D02*
X128301100Y-73660000D01*
X114935200Y-87630000D02*
X128301100Y-74264100D01*
X113649500Y-87630000D02*
X114935200Y-87630000D01*
X107918900Y-93360600D02*
X113649500Y-87630000D01*
X107918900Y-93980000D02*
X107918900Y-93360600D01*
X106680000Y-93980000D02*
X107918900Y-93980000D01*
X129540000Y-73660000D02*
X128301100Y-73660000D01*
X177800000Y-115538900D02*
X177800000Y-129540000D01*
X180340000Y-112998900D02*
X177800000Y-115538900D01*
X180340000Y-111760000D02*
X180340000Y-112998900D01*
X175260000Y-115538900D02*
X175260000Y-129540000D01*
X177800000Y-112998900D02*
X175260000Y-115538900D01*
X177800000Y-111760000D02*
X177800000Y-112998900D01*
X182880000Y-78740000D02*
X182880000Y-73660000D01*
X163060400Y-76938500D02*
X165100000Y-74898900D01*
X163060400Y-119737200D02*
X163060400Y-76938500D01*
X139266200Y-143531400D02*
X163060400Y-119737200D01*
X165100000Y-73660000D02*
X165100000Y-74898900D01*
X180340000Y-78740000D02*
X180340000Y-73660000D01*
X162560000Y-79706900D02*
X162560000Y-73660000D01*
X153670000Y-88596900D02*
X162560000Y-79706900D01*
X153670000Y-95866200D02*
X153670000Y-88596900D01*
X146050000Y-103486200D02*
X153670000Y-95866200D01*
X146050000Y-113596900D02*
X146050000Y-103486200D01*
X138590800Y-121056100D02*
X146050000Y-113596900D01*
X138590800Y-147531000D02*
X138590800Y-121056100D01*
X139319000Y-148259200D02*
X138590800Y-147531000D01*
X139319000Y-153073100D02*
X139319000Y-148259200D01*
X137056600Y-155335500D02*
X139319000Y-153073100D01*
X115315000Y-155335500D02*
X137056600Y-155335500D01*
X112998900Y-153019400D02*
X115315000Y-155335500D01*
X112998900Y-152400000D02*
X112998900Y-153019400D01*
X111760000Y-152400000D02*
X112998900Y-152400000D01*
X177800000Y-78740000D02*
X177800000Y-73660000D01*
X175260000Y-78740000D02*
X175260000Y-73660000D01*
X169441400Y-73660000D02*
X167640000Y-73660000D01*
X173990000Y-78208600D02*
X169441400Y-73660000D01*
X173990000Y-79288600D02*
X173990000Y-78208600D01*
X174742500Y-80041100D02*
X173990000Y-79288600D01*
X175786900Y-80041100D02*
X174742500Y-80041100D01*
X176561100Y-80815300D02*
X175786900Y-80041100D01*
X176561100Y-81280000D02*
X176561100Y-80815300D01*
X177800000Y-81280000D02*
X176561100Y-81280000D01*
X88900000Y-129540000D02*
X89394700Y-129540000D01*
X88900000Y-133350000D02*
X88900000Y-131958700D01*
X89394700Y-131464000D02*
X89394700Y-129540000D01*
X88900000Y-131958700D02*
X89394700Y-131464000D01*
X93083400Y-125851300D02*
X93980000Y-125851300D01*
X89394700Y-129540000D02*
X93083400Y-125851300D01*
X93980000Y-124460000D02*
X93980000Y-125851300D01*
X104140000Y-86360000D02*
X104140000Y-87598900D01*
X88900000Y-135890000D02*
X90291300Y-135890000D01*
X101831200Y-124350100D02*
X90291300Y-135890000D01*
X101831200Y-89443100D02*
X101831200Y-124350100D01*
X103675400Y-87598900D02*
X101831200Y-89443100D01*
X104140000Y-87598900D02*
X103675400Y-87598900D01*
X86360000Y-129540000D02*
X86360000Y-133350000D01*
X81280000Y-129540000D02*
X81280000Y-133350000D01*
X78740000Y-129540000D02*
X78740000Y-133350000D01*
X80010000Y-68580000D02*
X81248900Y-68580000D01*
X86360000Y-96520000D02*
X85121100Y-96520000D01*
X85121100Y-79835600D02*
X85121100Y-96520000D01*
X84718700Y-79433200D02*
X85121100Y-79835600D01*
X84718700Y-72049800D02*
X84718700Y-79433200D01*
X81248900Y-68580000D02*
X84718700Y-72049800D01*
X82581100Y-95281100D02*
X82581100Y-96520000D01*
X77470000Y-90170000D02*
X82581100Y-95281100D01*
X77470000Y-78270000D02*
X77470000Y-90170000D01*
X73628900Y-74428900D02*
X77470000Y-78270000D01*
X73628900Y-68580000D02*
X73628900Y-74428900D01*
X72390000Y-68580000D02*
X73628900Y-68580000D01*
X83820000Y-96520000D02*
X82581100Y-96520000D01*
X92741100Y-80264000D02*
X90170000Y-77692900D01*
X92741100Y-81280000D02*
X92741100Y-80264000D01*
X93980000Y-81280000D02*
X92741100Y-81280000D01*
X90170000Y-76200000D02*
X90170000Y-77692900D01*
M02*
